<?xml version="1.0" encoding="UTF-8" standalone="no"?>
<!DOCTYPE svg PUBLIC "-//W3C//DTD SVG 1.1//EN" "http://www.w3.org/Graphics/SVG/1.1/DTD/svg11.dtd">
<svg width="100%" height="100%" viewBox="0 0 534 420" version="1.1" xmlns="http://www.w3.org/2000/svg" xmlns:xlink="http://www.w3.org/1999/xlink" xml:space="preserve" xmlns:serif="http://www.serif.com/" style="fill-rule:evenodd;clip-rule:evenodd;stroke-linejoin:round;stroke-miterlimit:2;">
    <g id="ArtBoard1" transform="matrix(0.893081,0,0,1.03246,10.1735,0)">
        <rect x="-11.392" y="0" width="596.914" height="406.137" style="fill:none;"/>
        <g transform="matrix(0.587069,0,0,0.507816,-9.13803,1.7612)">
            <ellipse cx="600.8" cy="785.38" rx="26.93" ry="4.55" style="fill:rgb(108,99,255);fill-opacity:0.1;"/>
        </g>
        <g transform="matrix(0.587069,0,0,0.507816,-9.13803,1.7612)">
            <ellipse cx="805.06" cy="780.83" rx="26.93" ry="4.55" style="fill:rgb(108,99,255);fill-opacity:0.1;"/>
        </g>
        <g transform="matrix(0.587069,0,0,0.507816,-9.13803,1.7612)">
            <ellipse cx="354.13" cy="741.27" rx="176.1" ry="33.36" style="fill:rgb(108,99,255);fill-opacity:0.1;"/>
        </g>
        <g transform="matrix(0.587069,0,0,0.507816,-65.0446,-26.1839)">
            <path d="M681.78,166.43C617.06,164.19 555.42,143.29 496.56,120.43C437.7,97.57 379.4,72.25 316.23,60.14C275.6,52.35 229.13,51.24 196.4,73C164.89,94 154.71,130.15 149.24,163.72C145.12,188.98 142.7,215.57 153.98,239.22C161.82,255.64 175.72,269.44 185.34,285.17C218.81,339.89 195.15,407.37 158.89,460.8C141.89,485.86 122.14,509.8 109.01,536.45C95.88,563.1 89.81,593.74 101.3,621C112.68,648 139.81,668.24 169.2,682.49C228.89,711.44 299.2,719.72 367.81,724.42C519.64,734.8 672.27,730.31 824.5,725.8C880.84,724.14 937.42,722.45 992.84,713.74C1023.62,708.9 1055.39,701.22 1077.74,682.68C1106.1,659.15 1113.13,619.31 1094.12,589.81C1062.24,540.31 974.12,528.02 951.81,474.91C939.55,445.67 952.14,413.11 969.97,386C1008.21,327.83 1072.3,276.8 1075.67,210.32C1077.99,164.66 1047.18,118.93 999.54,97.32C949.61,74.67 880.36,77.52 843.54,115.01C805.59,153.57 738.93,168.42 681.78,166.43Z" style="fill:rgb(108,99,255);fill-opacity:0.1;fill-rule:nonzero;"/>
        </g>
        <g transform="matrix(0.587069,0,0,0.507816,-65.0446,-26.1839)">
            <path d="M630.35,416.77L599.72,396.12L615.17,373.12L534.27,366.67L505.2,389.15L468.81,368.75L438.46,372.4L438.1,364.4C437.724,356.06 436.886,347.747 435.59,339.5C435.72,337 435.81,334.13 435.8,331.01C435.8,317.86 434.02,300.43 426.2,288.81L428,272.63L413.4,255.38C415.745,250.71 418.418,246.212 421.4,241.92C421.9,241.2 422.4,240.5 422.94,239.82C441.89,238.45 456.84,222.87 456.84,203.82C456.84,202.94 456.84,202.06 456.74,201.19C456.74,200.84 456.67,200.48 456.63,200.13C458.48,201.13 460.35,202.13 462.22,203.13C462.57,203.63 462.97,204.13 463.41,204.72L463.5,204.83L464.06,205.52L464.24,205.73C464.44,205.97 464.65,206.2 464.86,206.44L465,206.6C465.53,207.19 466.09,207.79 466.69,208.38C466.761,208.438 466.828,208.502 466.89,208.57L467.64,209.27L467.85,209.46C468.49,210.03 469.17,210.58 469.85,211.1L470.07,211.26L470.93,211.85L471.21,212.03C471.54,212.23 471.88,212.44 472.21,212.63L472.33,212.7C472.72,212.91 473.12,213.11 473.52,213.3L473.72,213.38C474.06,213.527 474.393,213.667 474.72,213.8L475.03,213.91C475.38,214.03 475.72,214.14 476.08,214.24L476.3,214.3C476.74,214.41 477.18,214.5 477.63,214.57L477.68,214.57C478.104,214.639 478.531,214.682 478.96,214.7L479.25,214.7C479.633,214.72 480.017,214.72 480.4,214.7L480.65,214.7C481.13,214.672 481.607,214.616 482.08,214.53C484.317,214.236 486.466,213.465 488.38,212.27C488.867,211.944 489.299,211.542 489.66,211.08C491.66,208.46 489.46,205.59 489.46,205.59C488.68,203.73 483.62,202.42 483.62,202.42C483.62,202.42 467.62,195.74 467.62,190.42C467.62,185.1 463.62,157.5 422.33,151.19C422.33,151.19 395.47,149.68 387.92,164.06L387.76,165.74C385.54,167.13 383.7,169.92 381.51,170.74C380.564,170.943 379.651,171.28 378.8,171.74L378.8,171.55C378.547,171.771 378.34,172.039 378.19,172.34C377.72,173.276 377.438,174.295 377.36,175.34C377.135,176.616 376.692,177.844 376.05,178.97C375.871,179.29 375.671,179.597 375.45,179.89L375.28,180.16C376.441,180.25 377.607,180.062 378.68,179.61C378.511,180.979 378.175,182.322 377.68,183.61C378.976,183.652 380.183,182.931 380.76,181.77L380.76,181.69L380.89,181.51C381.141,181.047 381.349,180.562 381.51,180.06L381.4,180.18C381.6,179.53 381.78,178.87 382,178.23C382.101,177.87 382.267,177.531 382.49,177.23C383.031,176.685 383.8,176.428 384.56,176.54L384.15,185.21L384.33,185.21C384.089,185.841 383.795,186.45 383.45,187.03C382.03,189.33 379.45,190.9 378.5,193.42C378.09,194.635 377.934,195.922 378.04,197.2C378.04,197.95 378.13,198.71 378.19,199.46L378.19,199.4C378.33,201.4 378.37,203.3 377.29,204.91C376.55,206.01 375.36,206.84 374.95,208.09C374.837,208.438 374.786,208.804 374.8,209.17C374.88,210.266 375.109,211.346 375.48,212.38C375.484,212.36 375.484,212.34 375.48,212.32C375.729,213.081 375.788,213.891 375.65,214.68C375.2,216.68 372.77,218.35 372.89,220.26C372.883,220.511 372.92,220.762 373,221C373.467,221.933 374.277,222.65 375.26,223C376.802,223.877 378.573,224.267 380.34,224.12C381.002,224 381.643,223.781 382.24,223.47C381.54,225.08 380.82,226.67 380.09,228.18C379.98,228.42 379.86,228.66 379.74,228.9C379.74,228.9 373.56,224.77 370.05,233.19C369.025,234.94 368.292,236.845 367.88,238.83C367.704,239.624 367.456,240.401 367.14,241.15C365.582,243.788 363.249,245.883 360.46,247.15C353.3,250.43 324.38,286.5 323.87,295.84C323.62,299.486 323.003,303.097 322.03,306.62C319.753,314.915 319.169,323.584 320.31,332.11C320.667,334.865 321.259,337.585 322.08,340.24C325.15,349.57 327.2,366.98 327.2,366.98L330.52,397.2C330.397,401.371 330.577,405.545 331.06,409.69C327.67,413.56 314.06,429.69 319.26,434.08C323.26,437.54 330.26,436.97 334.19,436.26C330.88,444.45 325.67,458.69 324.98,468.47C323.98,482.94 326.69,502.11 330.98,509.47C335.27,516.83 349.57,535.71 349.57,535.71C349.57,535.71 348.9,561.61 354.01,571.02C359.12,580.43 361.18,599.95 361.18,599.95C361.18,599.95 365.95,616.43 363.56,622.49C361.17,628.55 367.99,633.59 360.83,637.62C353.67,641.65 344.51,732.48 344.51,732.48C344.51,732.48 340.82,792.01 344.51,795.04C344.707,795.184 344.918,795.307 345.14,795.41L345.14,815.41C345.14,815.41 342.58,819.61 352.99,820.46C360.12,821.03 380.33,822.32 392.32,823.07L401.61,823.65C401.61,823.65 423.61,828.03 433.33,823.65C443.05,819.27 460.28,819.37 457.72,807.8C457.381,806.225 456.926,804.678 456.36,803.17C453.55,795.99 448.78,795.17 439.99,793.17C439.48,793.06 438.99,792.96 438.54,792.88C429.28,791.27 426.24,795.58 421.05,789.97C416.54,785.12 402.18,779.69 397.29,777.97C397.41,777.61 397.56,777.26 397.68,776.89C396.295,776.655 395.007,776.027 393.97,775.08L407.22,775.92L415.11,776.41C415.11,776.41 433.81,780.14 442.11,776.41C450.41,772.68 465.01,772.78 462.83,762.95C462.543,761.61 462.158,760.294 461.68,759.01C459.29,752.91 455.23,752.24 447.76,750.55C447.33,750.46 446.93,750.37 446.53,750.3C438.66,748.93 436.08,752.59 431.67,747.83C427.89,743.77 415.96,739.22 411.67,737.67C411.67,735.45 408.67,732.29 406.78,729.12C404.56,725.42 408.66,712.47 408.66,712.47L411,658.74C411.891,658.343 412.834,658.074 413.8,657.94C414.766,657.806 424.38,647.84 421.99,637.08C421.503,633.826 421.249,630.541 421.23,627.25C424.71,624.02 429.5,619.25 430.86,616.31C433.08,611.52 430.86,588.31 430.86,588.31L430.86,499.56L448.56,501.35L464.62,503L469.51,503.5L485.57,505.12L522.48,508.85L555.74,502.55L570.13,499.83L599.72,494.23L599.72,421.83L630.35,416.77ZM386.74,176.86L384.68,176.64C385.36,176.67 386.08,176.8 386.74,176.86Z" style="fill:url(#_Linear1);fill-rule:nonzero;"/>
        </g>
        <g transform="matrix(0.587069,0,0,0.507816,-65.0446,-26.1839)">
            <path d="M558.56,463.78C548.56,478.09 512.61,470.51 512.61,470.51L484.75,444.44L481,440.91L487.29,427.55C487.29,427.55 489.29,428.1 492.72,429.08C510.73,434.31 567,451.75 558.56,463.78Z" style="fill:rgb(239,183,185);fill-rule:nonzero;"/>
        </g>
        <g transform="matrix(0.587069,0,0,0.507816,-65.0446,-26.1839)">
            <path d="M492.7,429.08C491.47,433.36 488.1,439.77 484.75,444.44L481,440.91L487.29,427.55C487.29,427.55 489.31,428.1 492.7,429.08Z" style="fill-opacity:0.1;fill-rule:nonzero;"/>
        </g>
        <g transform="matrix(0.587069,0,0,0.507816,-65.0446,-26.1839)">
            <path d="M397.15,278.42C397.15,278.42 371.47,289.81 372.73,317.78C373.637,335.8 375.6,353.75 378.61,371.54C381.62,389.33 373.36,413.63 395.22,424.48C417.08,435.33 437.31,444.25 437.31,444.25C437.31,444.25 471.51,447.93 475.76,449.45C480.01,450.97 493.29,427.73 490.84,424.11C488.39,420.49 457,412.9 453,406.86C449,400.82 439.75,397.09 439.75,397.09C439.75,397.09 430.2,391.31 429.55,386.09C428.9,380.87 431.42,376.98 432.06,374.69C432.7,372.4 434.32,350.29 434.32,350.29C434.32,350.29 445.1,271.59 397.15,278.42Z" style="fill:rgb(220,230,242);fill-rule:nonzero;"/>
        </g>
        <g transform="matrix(0.587069,0,0,0.507816,-65.0446,-26.1839)">
            <path d="M414.1,370.39C414.1,370.39 378.87,376.29 382.28,388.62C382.28,388.62 395.07,375.31 414.1,370.39Z" style="fill-opacity:0.1;fill-rule:nonzero;"/>
        </g>
        <g transform="matrix(0.587069,0,0,0.507816,-65.0446,-26.1839)">
            <path d="M414.37,375.38C414.37,375.38 395,391.19 398.79,392C402.58,392.81 414.37,375.38 414.37,375.38Z" style="fill-opacity:0.1;fill-rule:nonzero;"/>
        </g>
        <g transform="matrix(0.587069,0,0,0.507816,-65.0446,-26.1839)">
            <path d="M423.68,380.89C423.68,380.89 418.49,391.52 421.68,390.8C424.87,390.08 423.68,380.89 423.68,380.89Z" style="fill-opacity:0.1;fill-rule:nonzero;"/>
        </g>
        <g transform="matrix(0.587069,0,0,0.507816,-65.0446,-26.1839)">
            <path d="M494,430.21L491.86,429.6C492.47,427.6 492.64,425.98 492.14,425.23C489.69,421.61 458.32,414.03 454.33,407.98C450.34,401.93 441.08,398.21 441.08,398.21C441.08,398.21 431.53,392.43 430.88,387.21C430.23,381.99 432.75,378.1 433.39,375.81C434.03,373.52 435.65,351.4 435.65,351.4C435.65,351.4 446.4,272.71 398.45,279.54C398.45,279.54 372.77,290.94 374.02,318.91C374.927,336.93 376.894,354.881 379.91,372.67C382.926,390.459 374.66,414.76 396.52,425.61C418.38,436.46 438.61,445.38 438.61,445.38C438.61,445.38 472.8,449.05 477.06,450.58C478.67,451.16 481.58,448.17 484.43,444.06L486.05,445.57L513.91,471.63C513.91,471.63 549.86,479.22 559.86,464.91C568.31,452.87 512.05,435.43 494,430.21Z" style="fill-opacity:0.1;fill-rule:nonzero;"/>
        </g>
        <g transform="matrix(0.587069,0,0,0.507816,-65.0446,-26.1839)">
            <path d="M382.37,173.44C381.391,173.631 380.453,173.994 379.6,174.51C378.6,175.34 378.6,176.76 378.35,178C378.056,179.725 377.372,181.36 376.35,182.78C377.488,182.863 378.629,182.675 379.68,182.23C379.509,183.599 379.173,184.942 378.68,186.23C379.95,186.262 381.127,185.544 381.68,184.4C382.209,183.273 382.628,182.098 382.93,180.89C383.024,180.529 383.187,180.189 383.41,179.89C384.33,178.8 386.04,179.29 387.46,179.43C389.863,179.633 392.196,178.513 393.54,176.51C395.05,174.22 395.14,168.36 391.54,167.74C387.78,167.12 385.44,172.3 382.37,173.44Z" style="fill:rgb(150,93,123);fill-rule:nonzero;"/>
        </g>
        <g transform="matrix(1.11972,0,0,0.96856,-9.14045,1.76291)">
            <g opacity="0.1">
                <g transform="matrix(0.5243,0,0,0.5243,-49.927,-28.854)">
                    <path d="M379.5,175.74C379.59,175.25 379.65,174.74 379.76,174.25C378.81,175.08 378.76,176.49 378.51,177.74C378.384,178.461 378.186,179.168 377.92,179.85C378.707,178.595 379.244,177.199 379.5,175.74Z" style="fill-rule:nonzero;"/>
                </g>
                <g transform="matrix(0.5243,0,0,0.5243,-49.927,-28.854)">
                    <path d="M379.82,184C380.318,182.713 380.654,181.37 380.82,180C379.819,180.421 378.735,180.61 377.65,180.55C377.334,181.253 376.949,181.923 376.5,182.55C377.634,182.638 378.772,182.453 379.82,182.01C379.654,183.38 379.318,184.723 378.82,186.01C380.09,186.04 381.265,185.323 381.82,184.18C382.069,183.725 382.27,183.246 382.42,182.75C381.824,183.583 380.842,184.055 379.82,184Z" style="fill-rule:nonzero;"/>
                </g>
                <g transform="matrix(0.5243,0,0,0.5243,-49.927,-28.854)">
                    <path d="M388.6,177.2C387.18,177.06 385.46,176.57 384.54,177.66C384.321,177.962 384.158,178.3 384.06,178.66C383.97,178.92 383.89,179.19 383.82,179.46C384.77,178.71 386.31,179.11 387.6,179.24C390.002,179.436 392.331,178.318 393.68,176.32C393.983,175.834 394.209,175.305 394.35,174.75C392.961,176.47 390.803,177.389 388.6,177.2Z" style="fill-rule:nonzero;"/>
                </g>
            </g>
        </g>
        <g transform="matrix(0.587069,0,0,0.507816,-9.13803,1.7612)">
            <path d="M317.24,201L332.49,219.34L330.5,237.85L312.07,209L317.24,201Z" style="fill:rgb(220,230,242);fill-rule:nonzero;"/>
        </g>
        <g transform="matrix(0.587069,0,0,0.507816,-9.13803,1.7612)">
            <path d="M332.48,219.34L330.61,236.75L330.49,237.85L313.86,211.81L312.07,209L312.59,208.19L317.23,201L318.26,202.24L332.48,219.34Z" style="fill-opacity:0.1;fill-rule:nonzero;"/>
        </g>
        <g transform="matrix(0.587069,0,0,0.507816,-65.0446,-26.1839)">
            <path d="M435.63,231.2C430.47,232.68 425.54,237.76 421.25,243.93C418.35,248.187 415.757,252.645 413.49,257.27C412.08,260.09 410.84,262.8 409.81,265.16L409.09,266.84C407.35,270.95 406.38,273.7 406.38,273.7C406.38,273.7 366.88,244 373.13,242C375.23,241.33 377.99,236.83 380.72,231.16L381.06,230.44C382.79,226.8 384.49,222.74 386,218.92C389.09,211.07 391.38,204.25 391.38,204.25C391.38,204.25 451.38,226.7 435.63,231.2Z" style="fill:rgb(239,183,185);fill-rule:nonzero;"/>
        </g>
        <g transform="matrix(0.587069,0,0,0.507816,-65.0446,-26.1839)">
            <path d="M459.26,202.58C459.26,202.58 468.38,219.08 480.63,216.83C492.88,214.58 487.84,207.97 487.84,207.97L459.26,202.58Z" style="fill:rgb(68,64,83);fill-rule:nonzero;"/>
        </g>
        <g transform="matrix(0.587069,0,0,0.507816,-65.0446,-26.1839)">
            <path d="M441.59,773.73C433.51,777.42 415.24,773.73 415.24,773.73L407.54,773.25C397.54,772.61 380.8,771.53 374.88,771.05C366.24,770.34 368.36,766.8 368.36,766.8L368.36,745.41L410.28,734.79C410.28,734.79 426.85,740.46 431.39,745.41C435.7,750.13 438.22,746.5 445.91,747.86C446.29,747.93 446.69,748.01 447.11,748.11C454.41,749.78 458.37,750.44 460.71,756.49C461.18,757.761 461.558,759.064 461.84,760.39C464,770.13 449.66,770.06 441.59,773.73Z" style="fill:rgb(163,100,104);fill-rule:nonzero;"/>
        </g>
        <g transform="matrix(0.587069,0,0,0.507816,-65.0446,-26.1839)">
            <path d="M460.71,756.49C459.208,757.429 457.629,758.238 455.99,758.91C450.49,761.42 445.26,764.48 439.7,766.85C434.14,769.22 428.15,770.91 422.13,770.46C418.98,770.23 415.76,769.46 412.75,770.36C410.889,771.079 409.135,772.051 407.54,773.25C397.54,772.61 380.8,771.53 374.88,771.05C366.24,770.34 368.36,766.8 368.36,766.8L368.36,764.3C368.67,764.3 369.02,764.21 369.42,764.18C371.489,764.147 373.55,764.454 375.52,765.09C379.86,766.27 384.18,767.43 388.52,768.59C389.241,765.869 391.05,763.561 393.52,762.21C395.997,760.895 398.778,760.257 401.58,760.36C408.31,760.45 414.68,763.64 421.4,763.96C423.279,764.133 425.17,763.816 426.89,763.04C427.81,762.58 428.62,761.91 429.52,761.4C430.96,760.703 432.482,760.189 434.05,759.87C438.457,758.773 442.784,757.376 447,755.69C448.2,755.22 449.6,754.37 449.44,753.09C449.23,751.39 446.56,751.19 445.86,749.63C445.61,749.06 445.639,748.405 445.94,747.86C446.32,747.93 446.72,748.01 447.14,748.11C454.41,749.78 458.37,750.44 460.71,756.49Z" style="fill-opacity:0.1;fill-rule:nonzero;"/>
        </g>
        <g transform="matrix(0.587069,0,0,0.507816,-65.0446,-26.1839)">
            <path d="M433.05,820.53C423.55,824.87 402.05,820.53 402.05,820.53L393,820C381.28,819.25 361.54,818 354.57,817.41C344.4,816.57 346.9,812.41 346.9,812.41L346.9,787.2L396.23,774.7C396.23,774.7 415.73,781.37 421.07,787.2C426.14,792.75 429.07,788.48 438.16,790.08C438.61,790.16 439.08,790.26 439.57,790.37C448.16,792.37 452.82,793.12 455.57,800.24C456.127,801.735 456.571,803.269 456.9,804.83C459.38,816.29 442.55,816.2 433.05,820.53Z" style="fill:rgb(163,100,104);fill-rule:nonzero;"/>
        </g>
        <g transform="matrix(0.587069,0,0,0.507816,-65.0446,-26.1839)">
            <path d="M455.55,800.24C453.783,801.344 451.926,802.297 450,803.09C443.53,806.04 437.37,809.64 430.83,812.43C424.29,815.22 417.24,817.2 410.15,816.68C406.45,816.41 402.66,815.48 399.15,816.56C396.951,817.417 394.881,818.574 393,820C381.28,819.25 361.54,818 354.57,817.41C344.4,816.57 346.9,812.41 346.9,812.41L346.9,809.47C347.314,809.402 347.731,809.356 348.15,809.33C350.586,809.286 353.013,809.647 355.33,810.4L370.62,814.52C371.48,811.31 373.627,808.591 376.55,807.01C379.464,805.456 382.74,804.704 386.04,804.83C393.96,804.94 401.45,808.69 409.36,809.07C411.563,809.271 413.781,808.902 415.8,808C416.89,807.45 417.8,806.66 418.9,806.07C420.591,805.242 422.383,804.637 424.23,804.27C429.387,802.969 434.452,801.325 439.39,799.35C440.8,798.79 442.45,797.79 442.26,796.29C442.01,794.29 438.87,794.05 438.04,792.21C437.757,791.538 437.794,790.772 438.14,790.13C438.59,790.21 439.06,790.31 439.55,790.42C448.14,792.34 452.8,793.12 455.55,800.24Z" style="fill-opacity:0.1;fill-rule:nonzero;"/>
        </g>
        <g transform="matrix(0.587069,0,0,0.507816,-65.0446,-26.1839)">
            <path d="M411.55,647.54L408.88,710.37C408.88,710.37 404.88,723.2 407.05,726.87C409.22,730.54 412.88,734.2 411.55,736.37C410.22,738.54 394.22,762 389.05,753C383.88,744 378.78,705 378.78,705L383.55,656.83L411.55,647.54Z" style="fill:rgb(68,64,83);fill-rule:nonzero;"/>
        </g>
        <g transform="matrix(0.587069,0,0,0.507816,-65.0446,-26.1839)">
            <path d="M423.13,491L430.55,500.92L430.55,587.2C430.55,587.2 432.72,610.2 430.55,614.95C428.38,619.7 417.38,629.2 417.38,629.2L408.13,581.7L410.13,531.45L423.13,491Z" style="fill:rgb(68,64,83);fill-rule:nonzero;"/>
        </g>
        <g transform="matrix(0.587069,0,0,0.507816,-65.0446,-26.1839)">
            <path d="M411.55,647.54L408.88,710.37C408.88,710.37 404.88,723.2 407.05,726.87C409.22,730.54 412.88,734.2 411.55,736.37C410.22,738.54 394.22,762 389.05,753C383.88,744 378.78,705 378.78,705L383.55,656.83L411.55,647.54Z" style="fill-opacity:0.1;fill-rule:nonzero;"/>
        </g>
        <g transform="matrix(0.587069,0,0,0.507816,-65.0446,-26.1839)">
            <path d="M423.13,491L430.55,500.92L430.55,587.2C430.55,587.2 432.72,610.2 430.55,614.95C428.38,619.7 417.38,629.2 417.38,629.2L408.13,581.7L410.13,531.45L423.13,491Z" style="fill-opacity:0.1;fill-rule:nonzero;"/>
        </g>
        <g transform="matrix(0.587069,0,0,0.507816,-65.0446,-26.1839)">
            <path d="M430.55,454.2L430.55,500.87L422.22,537.2C422.22,537.2 419.55,624.87 421.88,635.53C424.21,646.19 413.88,656.2 413.88,656.2C413.88,656.2 407.88,656.87 407.88,661.53C407.88,666.19 397.88,679.53 397.88,679.53L398.21,705.53C398.21,705.53 402.55,754.2 395.88,763.53C389.21,772.86 398.21,774.2 398.21,774.2C389.88,801.53 349.88,795.2 346.27,792.2C342.66,789.2 346.27,730.2 346.27,730.2C346.27,730.2 355.21,640.2 362.21,636.2C369.21,632.2 362.55,627.2 364.88,621.2C367.21,615.2 362.55,598.87 362.55,598.87C362.55,598.87 360.55,579.53 355.55,570.2C350.55,560.87 351.21,535.2 351.21,535.2C351.21,535.2 337.21,516.53 333.05,509.2C328.89,501.87 326.21,482.87 327.21,468.53C327.89,458.84 332.98,444.73 336.21,436.61C337.76,432.72 338.88,430.2 338.88,430.2L339.83,430.45L394.45,444.75L430.55,454.2Z" style="fill:rgb(68,64,83);fill-rule:nonzero;"/>
        </g>
        <g transform="matrix(0.587069,0,0,0.507816,-65.0446,-26.1839)">
            <path d="M435.63,231.2C430.47,232.68 425.54,237.76 421.25,243.93L420.13,243.93C407.347,243.939 395.497,237.085 389.13,226C387.821,223.741 386.768,221.342 385.99,218.85C389.08,211 391.37,204.18 391.37,204.18C391.37,204.18 451.38,226.7 435.63,231.2Z" style="fill-opacity:0.1;fill-rule:nonzero;"/>
        </g>
        <g transform="matrix(0.587069,0,0,0.507816,-65.0446,-26.1839)">
            <path d="M455.88,206.2C455.88,206.219 455.88,206.239 455.88,206.258C455.88,225.87 439.742,242.008 420.13,242.008C400.518,242.008 384.38,225.87 384.38,206.258C384.38,200.099 385.972,194.043 389,188.68C390.084,186.744 391.349,184.916 392.78,183.22C395.138,180.411 397.91,177.976 401,176C406.731,172.358 413.383,170.423 420.174,170.423C438.809,170.423 454.478,184.994 455.83,203.58C455.85,204.46 455.88,205.33 455.88,206.2Z" style="fill:rgb(239,183,185);fill-rule:nonzero;"/>
        </g>
        <g transform="matrix(0.587069,0,0,0.507816,-65.0446,-26.1839)">
            <path d="M425.84,291.78L425.72,292.88L409.09,266.88C407.35,270.99 406.38,273.74 406.38,273.74C406.38,273.74 366.88,244 373.13,242C375.23,241.33 377.99,236.83 380.72,231.16L381.06,230.44C383.96,239.08 400.81,256.35 407.82,263.27C408.63,264.07 409.3,264.73 409.82,265.21L410.89,266.21L411.45,266.77C414,269.4 424.76,281 425.84,291.78Z" style="fill-opacity:0.1;fill-rule:nonzero;"/>
        </g>
        <g transform="matrix(0.587069,0,0,0.507816,-65.0446,-26.1839)">
            <path d="M438.27,380L436.45,438.57L436.13,449C436.13,449 414.57,447 394.45,444.8C378.25,443.03 362.98,441.12 360.63,440C357.63,438.59 351.2,437.5 346.13,436.81C342.21,436.28 339.13,436 339.13,436C339.13,436 337.98,436.34 336.21,436.66C332.35,437.36 325.57,437.93 321.62,434.5C316.57,430.11 329.84,414.16 333.15,410.33L333.88,409.5L332.63,397.95L329.38,368C329.38,368 327.38,350.75 324.38,341.5C323.578,338.87 322.999,336.177 322.65,333.45C321.535,325.002 322.106,316.416 324.33,308.19C325.28,304.695 325.883,301.114 326.13,297.5C326.63,288.25 354.88,252.5 361.88,249.25C365.028,247.782 367.563,245.254 369.04,242.11C369.528,241.121 369.894,240.077 370.13,239C373.13,226 380.72,231.16 380.72,231.16C382.55,241.33 410.88,268.25 410.88,268.25L411.44,268.81C414.25,271.69 426.77,285.21 425.88,296.75C425.702,301.045 426.344,305.335 427.77,309.39C433.532,327.535 436.845,346.368 437.62,365.39L438.27,380Z" style="fill:rgb(220,230,242);fill-rule:nonzero;"/>
        </g>
        <g transform="matrix(0.587069,0,0,0.507816,-65.0446,-26.1839)">
            <path d="M398.13,310.45C398.13,310.45 391.13,327.45 385.88,330.2C380.63,332.95 400.63,336 398.13,310.45Z" style="fill-opacity:0.1;fill-rule:nonzero;"/>
        </g>
        <g transform="matrix(0.587069,0,0,0.507816,-65.0446,-26.1839)">
            <path d="M403.38,342.2C403.38,342.2 387.38,344.2 387.38,347.2C387.38,350.2 403.38,342.2 403.38,342.2Z" style="fill-opacity:0.1;fill-rule:nonzero;"/>
        </g>
        <g transform="matrix(0.587069,0,0,0.507816,-65.0446,-26.1839)">
            <path d="M420.13,361.7C420.13,361.7 396.88,411.2 390.38,412.7C383.88,414.2 420.13,361.7 420.13,361.7Z" style="fill-opacity:0.1;fill-rule:nonzero;"/>
        </g>
        <g transform="matrix(0.587069,0,0,0.507816,-65.0446,-26.1839)">
            <path d="M410.44,270.76L391.21,279.12L368,244.06C368.488,243.071 368.854,242.027 369.09,240.95C372.09,227.95 379.68,233.11 379.68,233.11C381.51,243.28 409.84,270.2 409.84,270.2L410.44,270.76Z" style="fill-opacity:0.1;fill-rule:nonzero;"/>
        </g>
        <g transform="matrix(0.587069,0,0,0.507816,-65.0446,-26.1839)">
            <path d="M411.44,268.76L392.21,277.12L369,242.06C369.488,241.071 369.854,240.027 370.09,238.95C373.09,225.95 380.68,231.11 380.68,231.11C382.51,241.28 410.84,268.2 410.84,268.2L411.44,268.76Z" style="fill:rgb(220,230,242);fill-rule:nonzero;"/>
        </g>
        <g transform="matrix(0.587069,0,0,0.507816,-65.0446,-26.1839)">
            <path d="M436.13,449C436.13,449 414.57,447 394.45,444.8L430.55,454.25L430.55,465.25C428.97,466.68 427.6,467.42 426.71,467.04C422.55,465.29 388.6,459.79 388.6,459.79C388.6,459.79 368.88,449.79 347.6,437.79C347.083,437.504 346.583,437.19 346.1,436.85C343.619,435.165 341.481,433.024 339.8,430.54C335.87,424.85 333.95,417.54 333.12,410.37C332.653,406.261 332.48,402.124 332.6,397.99C332.703,393.303 333.131,388.628 333.88,384C331.822,366.074 330.82,348.043 330.88,330C331.13,302 357.38,292 357.38,292C405.63,287.75 390.67,365.75 390.67,365.75C390.67,365.75 387.88,387.75 387.12,390C386.36,392.25 383.63,396 384,401.25C384.37,406.5 393.59,412.78 393.59,412.78C393.59,412.78 402.59,417 406.3,423.25C409,427.86 426.54,434.11 436.45,438.57L436.13,449Z" style="fill-opacity:0.1;fill-rule:nonzero;"/>
        </g>
        <g transform="matrix(0.587069,0,0,0.507816,-65.0446,-26.1839)">
            <path d="M452.29,184C452.308,185.647 451.967,187.278 451.29,188.78C450.777,190.005 450.183,191.195 449.51,192.34C448.458,194.447 446.964,196.302 445.13,197.78C442.82,199.43 439.9,199.89 437.13,200.56C434.36,201.23 431.48,202.3 429.9,204.66C429.044,206.177 428.471,207.838 428.21,209.56C427.945,211.281 427.258,212.91 426.21,214.3C425.091,215.692 423.158,216.155 421.53,215.42C420.694,214.856 420.059,214.04 419.72,213.09C418.58,210.52 418.29,207.67 417.83,204.9C417.37,202.13 416.72,199.28 415.02,197.05C413.32,194.82 410.31,193.35 407.64,194.22C405.835,194.915 404.39,196.317 403.64,198.1C402.901,199.867 402.394,201.723 402.13,203.62C400.89,210.407 399.427,217.153 397.74,223.86C397.689,224.135 397.576,224.395 397.41,224.62C397.144,224.885 396.785,225.036 396.41,225.04C394.17,225.34 392.02,223.77 389.76,223.94C389.527,223.956 389.296,223.992 389.07,224.05C381.603,211.072 383.05,194.715 392.68,183.25L392.86,183.2C394.363,182.666 395.73,181.806 396.86,180.68C398.304,179.235 399.64,177.688 400.86,176.05L401.66,175.05C403.959,172.281 406.577,169.794 409.46,167.64C410.247,166.995 411.15,166.506 412.12,166.2C412.95,166.038 413.801,166.011 414.64,166.12C418.093,166.535 421.575,166.665 425.05,166.51C427.471,166.129 429.912,165.882 432.36,165.77C438.69,165.95 444.09,170.42 448.09,175.32C450.24,177.83 452.16,180.72 452.29,184Z" style="fill-opacity:0.1;fill-rule:nonzero;"/>
        </g>
        <g transform="matrix(0.587069,0,0,0.507816,-65.0446,-26.1839)">
            <path d="M384.33,189.63C382.94,191.91 380.43,193.46 379.49,195.96C378.11,199.59 380.44,204.11 378.3,207.35C377.59,208.44 376.42,209.25 376.02,210.5C375.34,212.61 377.2,214.86 376.72,217.03C376.24,219.2 373.38,221.03 374.14,223.15C374.589,224.074 375.377,224.791 376.34,225.15C377.855,226.019 379.6,226.406 381.34,226.26C384.07,225.81 386.1,223.13 388.87,222.93C391.12,222.77 393.27,224.33 395.51,224.04C395.885,224.027 396.242,223.873 396.51,223.61C396.68,223.387 396.793,223.126 396.84,222.85C398.52,216.15 399.987,209.403 401.24,202.61C401.495,200.712 402,198.856 402.74,197.09C403.495,195.311 404.939,193.911 406.74,193.21C409.41,192.35 412.41,193.81 414.12,196.04C415.83,198.27 416.48,201.12 416.94,203.89C417.4,206.66 417.69,209.51 418.82,212.08C419.163,213.033 419.801,213.853 420.64,214.42C422.14,215.29 424.16,214.6 425.31,213.3C426.363,211.909 427.051,210.276 427.31,208.55C427.571,206.831 428.144,205.173 429,203.66C430.58,201.3 433.47,200.23 436.23,199.56C438.99,198.89 441.9,198.42 444.23,196.77C446.061,195.294 447.555,193.442 448.61,191.34C450.09,188.76 451.47,185.96 451.35,182.99C451.22,179.75 449.3,176.86 447.25,174.34C443.25,169.44 437.84,164.97 431.51,164.8C429.061,164.902 426.62,165.15 424.2,165.54C420.725,165.696 417.243,165.562 413.79,165.14C412.95,165.04 412.1,165.07 411.27,165.23C410.299,165.527 409.397,166.016 408.62,166.67C405.734,168.82 403.112,171.304 400.81,174.07C399.325,176.038 397.715,177.909 395.99,179.67C394.859,180.797 393.493,181.661 391.99,182.2C390.99,182.48 389.99,182.28 389.04,182.59C386.09,183.52 385.7,187.37 384.33,189.63Z" style="fill:rgb(150,93,123);fill-rule:nonzero;"/>
        </g>
        <g transform="matrix(0.587069,0,0,0.507816,-65.0446,-26.1839)">
            <path d="M480.63,216.82C472.63,218.29 466,211.82 462.33,207.1C461.203,205.667 460.177,204.156 459.26,202.58L486.72,207.76L487.83,207.97C487.83,207.97 492.88,214.58 480.63,216.82Z" style="fill-opacity:0.1;fill-rule:nonzero;"/>
        </g>
        <g transform="matrix(1.11972,0,0,0.96856,-9.14045,1.76291)">
            <g opacity="0.1">
                <g transform="matrix(0.5243,0,0,0.5243,-49.927,-28.854)">
                    <path d="M376.72,214.17C376.832,212.862 376.633,211.546 376.14,210.33C376.14,210.43 376.05,210.53 376.02,210.63C375.59,211.97 376.17,213.36 376.54,214.75C376.619,214.563 376.68,214.369 376.72,214.17Z" style="fill-rule:nonzero;"/>
                </g>
                <g transform="matrix(0.5243,0,0,0.5243,-49.927,-28.854)">
                    <path d="M379.1,197.8C378.997,199.183 379.024,200.572 379.18,201.95C379.283,200.567 379.256,199.178 379.1,197.8Z" style="fill-rule:nonzero;"/>
                </g>
                <g transform="matrix(0.5243,0,0,0.5243,-49.927,-28.854)">
                    <path d="M448.55,188.45C447.498,190.557 446.004,192.412 444.17,193.89C441.86,195.54 438.95,196 436.17,196.67C433.39,197.34 430.52,198.41 428.94,200.77C428.085,202.288 427.513,203.948 427.25,205.67C426.99,207.395 426.302,209.028 425.25,210.42C424.1,211.72 422.08,212.42 420.58,211.54C419.741,210.973 419.103,210.153 418.76,209.2C417.63,206.63 417.33,203.79 416.88,201.01C416.43,198.23 415.76,195.39 414.06,193.16C412.36,190.93 409.35,189.46 406.68,190.33C404.877,191.028 403.432,192.429 402.68,194.21C401.94,195.976 401.435,197.832 401.18,199.73C399.933,206.523 398.467,213.27 396.78,219.97C396.733,220.246 396.62,220.507 396.45,220.73C396.182,220.993 395.825,221.147 395.45,221.16C393.21,221.45 391.06,219.89 388.81,220.05C386.04,220.25 384.01,222.93 381.28,223.37C379.539,223.526 377.791,223.138 376.28,222.26C375.585,221.961 374.961,221.518 374.45,220.96C373.976,221.638 373.84,222.498 374.08,223.29C374.52,224.221 375.312,224.94 376.28,225.29C377.791,226.168 379.539,226.556 381.28,226.4C384.01,225.96 386.04,223.28 388.81,223.08C391.06,222.92 393.21,224.48 395.45,224.19C395.825,224.177 396.182,224.023 396.45,223.76C396.62,223.537 396.733,223.276 396.78,223C398.46,216.333 399.927,209.587 401.18,202.76C401.435,200.862 401.94,199.006 402.68,197.24C403.432,195.459 404.877,194.058 406.68,193.36C409.35,192.49 412.35,193.96 414.06,196.19C415.77,198.42 416.42,201.27 416.88,204.04C417.34,206.81 417.63,209.66 418.76,212.23C419.103,213.183 419.741,214.003 420.58,214.57C422.08,215.44 424.1,214.75 425.25,213.45C426.302,212.058 426.99,210.425 427.25,208.7C427.513,206.978 428.085,205.318 428.94,203.8C430.52,201.44 433.41,200.38 436.17,199.7C438.93,199.02 441.84,198.57 444.17,196.92C446.004,195.442 447.498,193.587 448.55,191.48C450.03,188.91 451.41,186.11 451.29,183.14C451.27,182.758 451.23,182.378 451.17,182C450.688,184.289 449.8,186.473 448.55,188.45Z" style="fill-rule:nonzero;"/>
                </g>
            </g>
        </g>
        <g transform="matrix(0.587069,0,0,0.507816,-65.0446,-26.1839)">
            <path d="M451.33,188.75C453.894,193.309 455.414,198.382 455.78,203.6C446.87,198.6 438.49,193.11 434.26,191.2C426.89,187.87 399.33,188.37 388.97,188.68C390.054,186.744 391.319,184.916 392.75,183.22C395.117,180.408 397.899,177.974 401,176C406.731,172.363 413.38,170.431 420.167,170.431C433.1,170.431 445.063,177.445 451.38,188.73L451.33,188.75Z" style="fill-opacity:0.1;fill-rule:nonzero;"/>
        </g>
        <g transform="matrix(0.587069,0,0,0.507816,-65.0446,-26.1839)">
            <path d="M483.13,212.58C478.32,214.06 470.47,211.2 462.33,207.1C461.203,205.667 460.177,204.156 459.26,202.58L486.72,207.76C488.54,209 489,210.77 483.13,212.58Z" style="fill-opacity:0.1;fill-rule:nonzero;"/>
        </g>
        <g transform="matrix(0.587069,0,0,0.507816,-65.0446,-26.1839)">
            <path d="M422.26,154.08C422.26,154.08 396.01,152.58 388.63,166.83L387.44,179.46L385.44,179.24L385.04,187.83C385.04,187.83 425.16,186.08 434.29,190.2C443.42,194.32 471.79,215.08 483.16,211.58C494.53,208.08 482.16,204.83 482.16,204.83C482.16,204.83 466.51,198.2 466.51,193C466.51,187.8 462.63,160.33 422.26,154.08Z" style="fill:rgb(68,64,83);fill-rule:nonzero;"/>
        </g>
        <g transform="matrix(0.587069,0,0,0.507816,-65.0446,-26.1839)">
            <path d="M371.63,622.28C371.63,622.28 388.38,638.53 395.63,637.28C395.63,637.28 375.13,635.53 371.63,622.28Z" style="fill-opacity:0.1;fill-rule:nonzero;"/>
        </g>
        <g transform="matrix(0.587069,0,0,0.507816,-65.0446,-26.1839)">
            <path d="M368.13,629.81C368.13,629.81 369.63,638.17 373.63,637.35C377.63,636.53 368.13,629.81 368.13,629.81Z" style="fill-opacity:0.1;fill-rule:nonzero;"/>
        </g>
        <g transform="matrix(0.587069,0,0,0.507816,-65.0446,-26.1839)">
            <path d="M394.38,769.53C394.38,769.53 370.6,788.03 374.61,788.53C378.62,789.03 394.38,769.53 394.38,769.53Z" style="fill-opacity:0.1;fill-rule:nonzero;"/>
        </g>
        <g transform="matrix(0.587069,0,0,0.507816,-9.13803,1.7612)">
            <path d="M330.96,347.33L407.96,334.8L407.96,407.7L334.8,403.87L330.96,347.33Z" style="fill:rgb(108,99,255);fill-rule:nonzero;"/>
        </g>
        <g transform="matrix(0.587069,0,0,0.507816,-9.13803,1.7612)">
            <path d="M330.96,347.33L407.96,334.8L407.96,407.7L334.8,403.87L330.96,347.33Z" style="fill-opacity:0.05;fill-rule:nonzero;"/>
        </g>
        <g transform="matrix(0.587069,0,0,0.507816,-9.13803,1.7612)">
            <path d="M407.96,334.8L500.3,341.71L495.19,405.15L407.96,407.7L407.96,334.8Z" style="fill:rgb(108,99,255);fill-rule:nonzero;"/>
        </g>
        <g transform="matrix(0.587069,0,0,0.507816,-9.13803,1.7612)">
            <path d="M407.96,334.8L500.3,341.71L495.19,405.15L407.96,407.7L407.96,334.8Z" style="fill-opacity:0.1;fill-rule:nonzero;"/>
        </g>
        <g transform="matrix(0.587069,0,0,0.507816,-9.13803,1.7612)">
            <path d="M436.35,312.55L407.96,334.8L500.3,341.71L515.39,318.94L436.35,312.55Z" style="fill:rgb(108,99,255);fill-rule:nonzero;"/>
        </g>
        <g transform="matrix(0.587069,0,0,0.507816,-9.13803,1.7612)">
            <path d="M303.08,323.03L372.4,314.59L407.96,334.8L330.96,347.33L303.08,323.03Z" style="fill:rgb(108,99,255);fill-rule:nonzero;"/>
        </g>
        <g transform="matrix(0.587069,0,0,0.507816,-9.13803,1.7612)">
            <path d="M424.84,353.73L424.84,453.4L388.77,449.7L373.08,448.1L368.3,447.6L352.62,445.99L330.96,443.77L330.96,347.33L407.95,352.57L424.84,353.73Z" style="fill:rgb(108,99,255);fill-rule:nonzero;"/>
        </g>
        <g transform="matrix(0.587069,0,0,0.507816,-9.13803,1.7612)">
            <path d="M500.3,341.71L500.3,438.91L471.39,444.46L457.33,447.16L424.84,453.4L424.84,353.73L500.3,341.71Z" style="fill:rgb(108,99,255);fill-rule:nonzero;"/>
        </g>
        <g transform="matrix(0.587069,0,0,0.507816,-9.13803,1.7612)">
            <path d="M500.3,341.71L500.3,438.91L471.39,444.46L457.33,447.16L424.84,453.4L424.84,353.73L500.3,341.71Z" style="fill-opacity:0.05;fill-rule:nonzero;"/>
        </g>
        <g transform="matrix(0.587069,0,0,0.507816,-9.13803,1.7612)">
            <path d="M303.08,368.31L330.96,347.33L424.84,353.73L411.02,377.01L303.08,368.31Z" style="fill:rgb(108,99,255);fill-rule:nonzero;"/>
        </g>
        <g transform="matrix(0.587069,0,0,0.507816,-9.13803,1.7612)">
            <path d="M303.08,368.31L330.96,347.33L424.84,353.73L411.02,377.01L303.08,368.31Z" style="fill:white;fill-opacity:0.1;fill-rule:nonzero;"/>
        </g>
        <g transform="matrix(0.587069,0,0,0.507816,-9.13803,1.7612)">
            <path d="M500.3,341.71L424.84,353.73L449.4,375.73L530.23,362.17L500.3,341.71Z" style="fill:rgb(108,99,255);fill-rule:nonzero;"/>
        </g>
        <g transform="matrix(0.587069,0,0,0.507816,-9.13803,1.7612)">
            <path d="M500.3,341.71L424.84,353.73L449.4,375.73L530.23,362.17L500.3,341.71Z" style="fill:white;fill-opacity:0.1;fill-rule:nonzero;"/>
        </g>
        <g transform="matrix(0.587069,0,0,0.507816,-9.13803,1.7612)">
            <path d="M471.39,444.46L457.33,447.16L457.33,426.39L470.5,423.07L471.39,444.46Z" style="fill:white;fill-opacity:0.1;fill-rule:nonzero;"/>
        </g>
        <g transform="matrix(0.587069,0,0,0.507816,-9.13803,1.7612)">
            <path d="M388.77,435.96L388.77,449.7L373.08,448.1L373.08,435.96L388.77,435.96Z" style="fill:white;fill-opacity:0.1;fill-rule:nonzero;"/>
        </g>
        <g transform="matrix(0.587069,0,0,0.507816,-9.13803,1.7612)">
            <path d="M368.3,440.29L368.3,447.6L352.62,445.99L352.62,440.29L368.3,440.29Z" style="fill:white;fill-opacity:0.1;fill-rule:nonzero;"/>
        </g>
        <g transform="matrix(0.587069,0,0,0.507816,-65.0446,-26.1839)">
            <path d="M510.63,483.7C499.88,497.45 464.38,487.95 464.38,487.95L438,460.43L434.42,456.7L441.42,443.7C441.42,443.7 443.42,444.36 446.76,445.52C464.44,451.7 519.68,472.13 510.63,483.7Z" style="fill-opacity:0.1;fill-rule:nonzero;"/>
        </g>
        <g transform="matrix(0.587069,0,0,0.507816,-65.0446,-26.1839)">
            <path d="M509.63,481.7C498.88,495.45 463.38,485.95 463.38,485.95L437,458.43L433.42,454.7L440.42,441.7C440.42,441.7 442.42,442.36 445.76,443.52C463.44,449.7 518.68,470.13 509.63,481.7Z" style="fill:rgb(239,183,185);fill-rule:nonzero;"/>
        </g>
        <g transform="matrix(0.587069,0,0,0.507816,-65.0446,-26.1839)">
            <path d="M445.72,443.52C444.26,447.72 440.55,453.94 436.96,458.43L433.38,454.7L440.38,441.7C440.38,441.7 442.39,442.36 445.72,443.52Z" style="fill-opacity:0.1;fill-rule:nonzero;"/>
        </g>
        <g transform="matrix(0.587069,0,0,0.507816,-65.0446,-26.1839)">
            <path d="M358.38,288C358.38,288 332.13,298 331.88,326C331.82,344.043 332.822,362.074 334.88,380C336.938,397.926 327.38,421.75 348.63,433.75C369.88,445.75 389.63,455.75 389.63,455.75C389.63,455.75 423.58,461.25 427.75,463C431.92,464.75 446.41,442.25 444.16,438.5C441.91,434.75 411,425.5 407.33,419.25C403.66,413 394.62,408.79 394.62,408.79C394.62,408.79 385.4,402.5 385.03,397.25C384.66,392 387.38,388.25 388.15,386C388.92,383.75 391.71,361.75 391.71,361.75C391.71,361.75 406.63,283.7 358.38,288Z" style="fill:rgb(220,230,242);fill-rule:nonzero;"/>
        </g>
        <g transform="matrix(0.587069,0,0,0.507816,-65.0446,-26.1839)">
            <path d="M370.38,380.7C370.38,380.7 334.88,384.7 337.63,397.2C337.63,397.2 351.12,384.59 370.38,380.7Z" style="fill-opacity:0.1;fill-rule:nonzero;"/>
        </g>
        <g transform="matrix(0.587069,0,0,0.507816,-65.0446,-26.1839)">
            <path d="M370.38,385.7C370.38,385.7 350.23,400.45 353.93,401.45C357.63,402.45 370.38,385.7 370.38,385.7Z" style="fill-opacity:0.1;fill-rule:nonzero;"/>
        </g>
        <g transform="matrix(0.587069,0,0,0.507816,-65.0446,-26.1839)">
            <path d="M379.38,391.7C379.38,391.7 373.63,402.04 376.88,401.5C380.13,400.96 379.38,391.7 379.38,391.7Z" style="fill-opacity:0.1;fill-rule:nonzero;"/>
        </g>
        <g transform="matrix(0.587069,0,0,0.507816,-65.0446,-26.1839)">
            <path d="M749,167.42C749,167.42 711,165.13 715.44,191.79C715.44,191.79 714.55,196.5 718.82,198.64C718.82,198.64 718.89,196.64 722.72,197.33C724.084,197.56 725.47,197.627 726.85,197.53C728.719,197.405 730.497,196.671 731.91,195.44C733.323,194.209 742.6,191.03 746.76,173.55C746.76,173.55 749.84,169.73 749.76,168.75L743.34,171.5C743.34,171.5 745.53,176.13 743.8,179.98C743.8,179.98 743.6,171.67 742.36,171.86C742.11,171.86 739.03,173.47 739.03,173.47C739.03,173.47 742.8,181.53 739.95,187.4C739.95,187.4 741.03,177.46 737.85,174.05L733.33,176.69C733.33,176.69 737.74,185.02 734.75,191.82C734.75,191.82 735.52,181.39 732.38,177.33L728.28,180.52C728.28,180.52 732.43,188.74 729.9,194.38C729.9,194.38 729.57,182.24 727.39,181.32C727.39,181.32 723.81,184.48 723.27,185.78C723.27,185.78 726.1,191.78 724.34,194.89C724.34,194.89 723.26,186.8 722.34,186.76C722.34,186.76 718.77,192.12 718.4,195.76C718.573,192.367 719.631,189.077 721.47,186.22C719.413,186.609 717.514,187.593 716.01,189.05C714.506,190.507 716.56,185.26 722.35,184.93C722.35,184.93 725.35,180.86 726.09,180.61C726.09,180.61 720.33,180.13 716.84,181.68C716.84,181.68 719.91,178.11 727.15,179.68L731.15,176.38C731.15,176.38 723.57,175.38 720.35,176.49C720.35,176.49 724.05,173.33 732.24,175.63L736.64,173C736.64,173 730.18,171.6 726.33,172.11C726.33,172.11 730.39,169.92 737.93,172.29L741.08,170.88C741.08,170.88 736.34,169.95 734.96,169.8C733.58,169.65 733.5,169.27 733.5,169.27C736.498,168.771 739.577,169.117 742.39,170.27C745.203,171.423 749.14,167.84 749,167.42Z" style="fill:rgb(108,99,255);fill-rule:nonzero;"/>
        </g>
        <g transform="matrix(0.587069,0,0,0.507816,-65.0446,-26.1839)">
            <path d="M864.46,300.76C864.46,300.76 826.46,298.47 830.9,325.13C830.9,325.13 830.01,329.84 834.28,331.98C834.28,331.98 834.35,329.98 838.19,330.67C839.554,330.9 840.94,330.967 842.32,330.87C844.168,330.736 845.923,330.006 847.32,328.79C848.717,327.574 858.02,324.37 862.18,306.89C862.18,306.89 865.25,303.08 865.13,302.1L858.71,304.84C858.71,304.84 860.9,309.47 859.18,313.32C859.18,313.32 858.97,305.01 857.74,305.2C857.49,305.2 854.4,306.81 854.4,306.81C854.4,306.81 858.18,314.88 855.33,320.74C855.33,320.74 856.41,310.8 853.22,307.39L848.75,310C848.75,310 853.16,318.33 850.17,325.13C850.17,325.13 850.94,314.7 847.8,310.64L843.71,313.84C843.71,313.84 847.85,322.05 845.33,327.69C845.33,327.69 845,315.55 842.82,314.63C842.82,314.63 839.24,317.79 838.69,319.09C838.69,319.09 841.53,325.09 839.77,328.2C839.77,328.2 838.69,320.11 837.77,320.07C837.77,320.07 834.2,325.43 833.83,329.07C834.009,325.676 835.07,322.387 836.91,319.53C834.85,319.92 832.948,320.904 831.44,322.36C829.932,323.816 832,318.57 837.79,318.24C837.79,318.24 840.74,314.17 841.53,313.92C841.53,313.92 835.77,313.44 832.28,314.99C832.28,314.99 835.35,311.42 842.58,313.04L846.58,309.74C846.58,309.74 838.99,308.74 835.78,309.85C835.78,309.85 839.48,306.69 847.67,308.99L852.07,306.36C852.07,306.36 845.6,304.97 841.75,305.47C841.75,305.47 845.82,303.28 853.36,305.65L856.51,304.24C856.51,304.24 851.77,303.31 850.38,303.16C848.99,303.01 848.92,302.63 848.92,302.63C851.922,302.131 855.004,302.477 857.82,303.63C860.636,304.783 864.58,301.18 864.46,300.76Z" style="fill:rgb(108,99,255);fill-opacity:0.1;fill-rule:nonzero;"/>
        </g>
        <g transform="matrix(0.587069,0,0,0.507816,-65.0446,-26.1839)">
            <path d="M633.61,277.09C633.61,277.09 642.36,240 615.32,239.87C615.32,239.87 610.83,238.19 608,242.03C608,242.03 609.93,242.44 608.62,246.1C608.167,247.394 607.865,248.736 607.72,250.1C607.526,251.958 607.944,253.83 608.91,255.43C609.876,257.03 611.44,266.73 627.91,273.81C627.91,273.81 631.15,277.49 632.13,277.53L630.53,270.74C630.53,270.74 625.59,272.11 622.09,269.74C622.09,269.74 630.32,270.95 630.33,269.74C630.33,269.49 629.33,266.18 629.33,266.18C629.33,266.18 620.74,268.52 615.44,264.71C615.44,264.71 625.05,267.47 628.96,264.92L627.16,260C627.16,260 618.16,262.93 612,258.82C612,258.82 622.15,261.36 626.69,258.96L624.24,254.38C624.24,254.38 615.44,257.06 610.31,253.61C610.31,253.61 622.31,255.35 623.61,253.37C623.61,253.37 621.11,249.3 619.92,248.54C619.92,248.54 613.56,250.32 610.76,248.05C610.76,248.05 618.91,248.36 619.1,247.5C619.1,247.5 614.43,243.07 610.87,242.07C614.187,242.825 617.252,244.432 619.76,246.73C619.723,244.634 619.077,242.594 617.9,240.86C616.723,239.126 621.54,242.06 620.9,247.86C620.9,247.86 624.4,251.46 624.51,252.28C624.51,252.28 625.96,246.69 625.03,242.98C625.03,242.98 628.03,246.62 625.2,253.47L627.76,258.02C627.76,258.02 630.08,250.72 629.49,247.36C629.49,247.36 631.98,251.54 628.31,259.22L630.16,264.01C630.16,264.01 632.63,257.87 632.79,254.01C632.79,254.01 634.26,258.39 630.63,265.42L631.49,268.76C631.49,268.76 633.21,264.25 633.59,262.91C633.97,261.57 634.36,261.56 634.36,261.56C634.345,264.602 633.482,267.58 631.87,270.16C630.258,272.74 633.18,277.14 633.61,277.09Z" style="fill:rgb(108,99,255);fill-opacity:0.1;fill-rule:nonzero;"/>
        </g>
        <g transform="matrix(0.587069,0,0,0.507816,-65.0446,-26.1839)">
            <path d="M550.39,289.73C550.39,289.73 519.87,266.9 508.96,291.63C508.96,291.63 505.63,295.08 508.02,299.21C508.02,299.21 509.16,297.6 512.02,300.27C513.033,301.212 514.154,302.031 515.36,302.71C516.993,303.619 518.879,303.971 520.73,303.71C522.581,303.449 532.09,305.9 545.17,293.59C545.17,293.59 549.84,292.09 550.28,291.21L543.39,290C543.39,290 542.67,295.07 539.12,297.34C539.12,297.34 543.51,290.28 542.37,289.77C542.14,289.66 538.7,289.27 538.7,289.27C538.7,289.27 537.42,298.09 531.82,301.42C531.82,301.42 538.19,293.71 537.4,289.11L532.17,288.83C532.17,288.83 531.28,298.22 525.04,302.26C525.04,302.26 531.41,293.97 531.04,288.85L525.86,289.27C525.86,289.27 524.81,298.4 519.6,301.72C519.6,301.72 525.99,291.4 524.68,289.44C524.68,289.44 519.95,290.11 518.78,290.89C518.78,290.89 517.87,297.43 514.67,299.09C514.67,299.09 518.22,291.74 517.5,291.23C517.5,291.23 511.57,293.74 509.24,296.6C511.255,293.862 513.951,291.697 517.06,290.32C515.126,289.516 512.999,289.294 510.94,289.68C508.881,290.066 513.48,286.82 518.5,289.73C518.5,289.73 523.2,287.96 524,288.18C524,288.18 519.45,284.61 515.68,283.99C515.68,283.99 520.22,282.69 525.37,287.99L530.56,287.46C530.56,287.46 524.79,282.46 521.48,281.62C521.48,281.62 526.31,281.01 531.88,287.43L537,287.66C537,287.66 532.37,282.94 528.88,281.24C528.88,281.24 533.47,281.64 538.47,287.77L541.88,288.32C541.88,288.32 538.43,284.94 537.35,284.06C536.27,283.18 536.42,282.81 536.42,282.81C539.202,284.042 541.587,286.022 543.31,288.53C545.033,291.038 550.26,290.14 550.39,289.73Z" style="fill:rgb(108,99,255);fill-opacity:0.1;fill-rule:nonzero;"/>
        </g>
        <g transform="matrix(0.587069,0,0,0.507816,-65.0446,-26.1839)">
            <path d="M652,77.62C652,77.62 621.48,54.78 610.57,79.52C610.57,79.52 607.24,82.97 609.63,87.1C609.63,87.1 610.77,85.49 613.63,88.16C614.648,89.098 615.773,89.913 616.98,90.59C618.613,91.5 620.499,91.851 622.35,91.59C624.201,91.329 633.71,93.78 646.79,81.46C646.79,81.46 651.46,79.97 651.89,79.08L645,77.89C645,77.89 644.29,82.96 640.73,85.23C640.73,85.23 645.13,78.17 643.99,77.66C643.76,77.55 640.32,77.16 640.32,77.16C640.32,77.16 639,86 633.4,89.31C633.4,89.31 639.76,81.6 638.98,77L633.75,76.72C633.75,76.72 632.85,86.11 626.62,90.14C626.62,90.14 632.99,81.85 632.62,76.73L627.45,77.15C627.45,77.15 626.39,86.29 621.18,89.61C621.18,89.61 627.58,79.29 626.27,77.33C626.27,77.33 621.54,78 620.37,78.78C620.37,78.78 619.46,85.32 616.26,86.98C616.26,86.98 619.81,79.63 619.09,79.11C619.09,79.11 613.16,81.63 610.83,84.49C612.842,81.749 615.539,79.583 618.65,78.21C616.714,77.4 614.582,77.178 612.52,77.57C610.458,77.962 615.07,74.71 620.09,77.62C620.09,77.62 624.79,75.84 625.59,76.07C625.59,76.07 621.04,72.5 617.27,71.87C617.27,71.87 621.8,70.58 626.95,75.87L632.14,75.34C632.14,75.34 626.38,70.34 623.06,69.49C623.06,69.49 627.89,68.89 633.47,75.31L638.59,75.53C638.59,75.53 633.96,70.81 630.46,69.12C630.46,69.12 635.06,69.52 640.06,75.65L643.46,76.2C643.46,76.2 640,72.86 638.92,72C637.84,71.14 637.99,70.76 637.99,70.76C640.773,71.99 643.159,73.971 644.88,76.48C646.601,78.989 651.83,78 652,77.62Z" style="fill:rgb(108,99,255);fill-opacity:0.1;fill-rule:nonzero;"/>
        </g>
        <g transform="matrix(0.587069,0,0,0.507816,-65.0446,-26.1839)">
            <path d="M768.62,106.55C768.62,106.55 756.42,70.44 733.41,84.63C733.41,84.63 728.71,85.63 728.34,90.34C728.34,90.34 730.19,89.66 731.01,93.46C731.315,94.812 731.774,96.124 732.38,97.37C733.206,99.047 734.554,100.412 736.22,101.26C737.886,102.108 744.34,109.51 762.1,106.78C762.1,106.78 766.79,108.2 767.65,107.71L762.65,102.8C762.65,102.8 759.19,106.57 754.97,106.42C754.97,106.42 762.6,103.1 761.97,102.03C761.84,101.82 759.23,99.55 759.23,99.55C759.23,99.55 753.17,106.08 746.67,105.65C746.67,105.65 756.28,102.91 758.24,98.65L754.1,95.46C754.1,95.46 748.04,102.68 740.61,102.46C740.61,102.46 750.61,99.25 753.14,94.81L748.64,92.22C748.64,92.22 742.64,99.15 736.42,98.93C736.42,98.93 747.54,94.06 747.57,91.7C747.57,91.7 743.3,89.57 741.89,89.55C741.89,89.55 737.43,94.42 733.89,93.98C733.89,93.98 740.97,89.93 740.67,89.1C740.67,89.1 734.37,87.81 730.82,88.85C734.031,87.732 737.479,87.474 740.82,88.1C739.679,86.339 738.049,84.949 736.13,84.1C734.211,83.251 739.85,83.19 742.34,88.43C742.34,88.43 747.22,89.64 747.74,90.27C747.74,90.27 746.02,84.76 743.27,82.1C743.27,82.1 747.74,83.61 748.96,90.92L753.54,93.42C753.54,93.42 751.65,86.01 749.37,83.42C749.37,83.42 753.7,85.66 754.64,94.11L758.74,97.2C758.74,97.2 757.6,90.68 755.68,87.3C755.68,87.3 759.24,90.24 759.88,98.13L762.37,100.51C762.37,100.51 761.45,95.77 761.07,94.43C760.69,93.09 761,93 761,93C762.59,95.594 763.431,98.578 763.43,101.62C763.429,104.662 768.27,106.81 768.62,106.55Z" style="fill:rgb(108,99,255);fill-opacity:0.1;fill-rule:nonzero;"/>
        </g>
        <g transform="matrix(0.587069,0,0,0.507816,-65.0446,-26.1839)">
            <path d="M689,108.33C689,108.33 651.1,104.11 654.23,131C654.23,131 653.1,135.66 657.23,138C657.23,138 657.4,136 661.23,136.9C662.584,137.191 663.966,137.329 665.35,137.31C667.22,137.276 669.028,136.634 670.5,135.48C671.972,134.326 681.41,131.61 686.5,114.36C686.5,114.36 689.76,110.71 689.69,109.72L683.14,112.14C683.14,112.14 685.14,116.87 683.14,120.63C683.14,120.63 683.35,112.32 682.14,112.45C681.89,112.45 678.73,113.89 678.73,113.89C678.73,113.89 682.09,122.14 678.95,127.89C678.95,127.89 680.53,118.01 677.52,114.45L672.87,116.85C672.87,116.85 676.87,125.4 673.52,132.04C673.52,132.04 674.82,121.66 671.89,117.45L667.64,120.45C667.64,120.45 671.36,128.86 668.55,134.37C668.55,134.37 668.84,122.23 666.71,121.2C666.71,121.2 662.97,124.2 662.36,125.44C662.36,125.44 664.89,131.54 662.98,134.59C662.98,134.59 662.31,126.46 661.43,126.38C661.43,126.38 657.59,131.55 657.03,135.2C657.377,131.816 658.604,128.582 660.59,125.82C658.515,126.107 656.568,126.993 654.99,128.37C653.412,129.747 655.73,124.62 661.53,124.58C661.53,124.58 664.68,120.67 665.53,120.46C665.53,120.46 659.8,119.69 656.23,121.06C656.23,121.06 659.48,117.64 666.62,119.63L670.83,116.54C670.83,116.54 663.22,115 660,116C660,116 663.86,113 671.92,115.75L676.45,113.34C676.45,113.34 670.06,111.62 666.19,111.93C666.19,111.93 670.36,109.93 677.77,112.7L680.99,111.45C680.99,111.45 676.3,110.28 674.92,110.06C673.54,109.84 673.49,109.46 673.49,109.46C676.513,109.113 679.573,109.612 682.33,110.9C685.087,112.188 689.07,108.75 689,108.33Z" style="fill:rgb(108,99,255);fill-opacity:0.1;fill-rule:nonzero;"/>
        </g>
        <g transform="matrix(0.587069,0,0,0.507816,-65.0446,-26.1839)">
            <path d="M1020.6,402.5C1020.6,402.5 982.72,398.28 985.85,425.14C985.85,425.14 984.72,429.8 988.85,432.14C988.85,432.14 989.02,430.14 992.85,431.03C994.202,431.331 995.585,431.469 996.97,431.44C998.841,431.411 1000.65,430.768 1002.12,429.61C1003.59,428.452 1013.03,425.74 1018.07,408.5C1018.07,408.5 1021.33,404.84 1021.26,403.86L1014.71,406.27C1014.71,406.27 1016.71,411.01 1014.71,414.77C1014.71,414.77 1014.92,406.45 1013.71,406.59C1013.46,406.59 1010.3,408.02 1010.3,408.02C1010.3,408.02 1013.66,416.27 1010.52,422.02C1010.52,422.02 1012.1,412.15 1009.09,408.58L1004.44,410.99C1004.44,410.99 1008.44,419.54 1005.1,426.18C1005.1,426.18 1006.39,415.8 1003.46,411.58L999.21,414.58C999.21,414.58 1002.93,422.99 1000.12,428.49C1000.12,428.49 1000.41,416.35 998.28,415.33C998.28,415.33 994.55,418.33 993.93,419.57C993.93,419.57 996.47,425.67 994.55,428.72C994.55,428.72 993.88,420.59 993,420.51C993,420.51 989.16,425.68 988.6,429.33C988.947,425.946 990.174,422.712 992.16,419.95C990.084,420.232 988.136,421.119 986.56,422.5C984.984,423.881 987.3,418.74 993.1,418.7C993.1,418.7 996.26,414.79 997.1,414.59C997.1,414.59 991.37,413.81 987.8,415.18C987.8,415.18 991.05,411.77 998.2,413.76L1002.4,410.67C1002.4,410.67 994.88,409.25 991.61,410.23C991.61,410.23 995.47,407.23 1003.53,409.97L1008.06,407.57C1008.06,407.57 1001.67,405.85 997.8,406.16C997.8,406.16 1001.97,404.16 1009.38,406.93L1012.6,405.67C1012.6,405.67 1007.91,404.5 1006.53,404.29C1005.15,404.08 1005.1,403.69 1005.1,403.69C1008.12,403.337 1011.18,403.832 1013.94,405.12C1016.7,406.408 1020.7,402.93 1020.6,402.5Z" style="fill:rgb(108,99,255);fill-opacity:0.1;fill-rule:nonzero;"/>
        </g>
        <g transform="matrix(0.587069,0,0,0.507816,-65.0446,-26.1839)">
            <path d="M1078.51,437.88C1078.51,437.88 1040.63,433.67 1043.76,460.52C1043.76,460.52 1042.64,465.18 1046.76,467.52C1046.76,467.52 1046.93,465.52 1050.76,466.42C1052.11,466.714 1053.49,466.848 1054.87,466.82C1056.73,466.782 1058.53,466.143 1060,465C1061.47,463.857 1070.9,461.13 1075.94,443.88C1075.94,443.88 1079.21,440.23 1079.13,439.24L1072.58,441.65C1072.58,441.65 1074.58,446.39 1072.58,450.15C1072.58,450.15 1072.79,441.84 1071.58,441.97C1071.33,441.97 1068.17,443.4 1068.17,443.4C1068.17,443.4 1071.53,451.65 1068.39,457.4C1068.39,457.4 1069.97,447.53 1066.96,443.97L1062.31,446.37C1062.31,446.37 1066.31,454.92 1062.97,461.56C1062.97,461.56 1064.26,451.18 1061.33,446.97L1057.08,449.97C1057.08,449.97 1060.8,458.38 1058,463.89C1058,463.89 1058.28,451.74 1056.15,450.72C1056.15,450.72 1052.42,453.72 1051.8,454.96C1051.8,454.96 1054.34,461.06 1052.42,464.11C1052.42,464.11 1051.75,455.98 1050.87,455.9C1050.87,455.9 1047.03,461.07 1046.48,464.72C1046.83,461.338 1048.05,458.104 1050.03,455.34C1047.95,455.627 1046.01,456.513 1044.43,457.89C1042.85,459.267 1045.18,454.13 1050.98,454.1C1050.98,454.1 1054.13,450.19 1054.98,449.98C1054.98,449.98 1049.25,449.21 1045.68,450.58C1045.68,450.58 1048.93,447.16 1056.08,449.15L1060.28,446.06C1060.28,446.06 1052.76,444.64 1049.49,445.62C1049.49,445.62 1053.35,442.62 1061.41,445.37L1065.94,442.96C1065.94,442.96 1059.55,441.24 1055.68,441.55C1055.68,441.55 1059.85,439.55 1067.26,442.32L1070.48,441.07C1070.48,441.07 1065.79,439.9 1064.42,439.68C1063.05,439.46 1062.98,439.08 1062.98,439.08C1066,438.733 1069.06,439.232 1071.82,440.52C1074.58,441.808 1078.61,438.31 1078.51,437.88Z" style="fill:rgb(108,99,255);fill-opacity:0.1;fill-rule:nonzero;"/>
        </g>
        <g transform="matrix(0.587069,0,0,0.507816,-65.0446,-26.1839)">
            <path d="M949.94,139.87C949.94,139.87 919.42,117.04 908.51,141.77C908.51,141.77 905.18,145.22 907.57,149.35C907.57,149.35 908.71,147.74 911.57,150.41C912.583,151.352 913.704,152.171 914.91,152.85C916.543,153.759 918.429,154.11 920.28,153.85C922.131,153.59 931.64,156.04 944.73,143.73C944.73,143.73 949.39,142.23 949.83,141.35L942.96,140.11C942.96,140.11 942.24,145.18 938.69,147.45C938.69,147.45 943.08,140.39 941.94,139.88C941.71,139.77 938.28,139.38 938.28,139.38C938.28,139.38 936.99,148.2 931.39,151.53C931.39,151.53 937.76,143.82 936.97,139.22L931.74,138.94C931.74,138.94 930.85,148.33 924.61,152.37C924.61,152.37 930.99,144.08 930.61,138.96L925.43,139.38C925.43,139.38 924.43,148.51 919.17,151.83C919.17,151.83 925.57,141.51 924.25,139.55C924.25,139.55 919.52,140.22 918.35,141C918.35,141 917.45,147.54 914.25,149.2C914.25,149.2 917.79,141.85 917.07,141.34C917.07,141.34 911.14,143.85 908.81,146.71C910.825,143.972 913.521,141.807 916.63,140.43C914.696,139.626 912.569,139.404 910.51,139.79C908.451,140.176 913.06,136.93 918.08,139.84C918.08,139.84 922.77,138.07 923.57,138.29C923.57,138.29 919.02,134.72 915.25,134.1C915.25,134.1 919.79,132.8 924.94,138.1L930.13,137.57C930.13,137.57 924.37,132.57 921.05,131.73C921.05,131.73 925.88,131.12 931.45,137.54L936.58,137.77C936.58,137.77 931.94,133.05 928.45,131.35C928.45,131.35 933.05,131.75 938.04,137.88L941.45,138.43C941.45,138.43 938,135.05 936.92,134.17C935.84,133.29 936,133 936,133C938.778,134.234 941.16,136.214 942.88,138.72C944.6,141.226 949.81,140.28 949.94,139.87Z" style="fill:rgb(108,99,255);fill-opacity:0.1;fill-rule:nonzero;"/>
        </g>
        <g transform="matrix(0.587069,0,0,0.507816,-65.0446,-26.1839)">
            <path d="M973.52,304.69C973.52,304.69 963,268.06 939.34,281.21C939.34,281.21 934.6,281.94 934.01,286.68C934.01,286.68 935.89,286.09 936.54,289.92C936.781,291.296 937.184,292.639 937.74,293.92C938.482,295.643 939.767,297.076 941.4,298C943.033,298.924 949.14,306.6 967,304.68C967,304.68 971.62,306.3 972.5,305.86L967.77,300.72C967.77,300.72 964.14,304.34 959.94,304C959.94,304 967.7,301 967.1,299.93C966.98,299.71 964.48,297.32 964.48,297.32C964.48,297.32 958.14,303.58 951.66,302.85C951.66,302.85 961.39,300.55 963.53,296.41L959.53,293.03C959.53,293.03 953.15,299.97 945.74,299.43C945.74,299.43 955.82,296.66 958.6,292.35L954.22,289.56C954.22,289.56 947.87,296.21 941.71,295.71C941.71,295.71 953.04,291.34 953.18,288.99C953.18,288.99 949,286.67 947.59,286.59C947.59,286.59 942.92,291.25 939.37,290.65C939.37,290.65 946.63,286.92 946.37,286.08C946.37,286.08 940.13,284.51 936.54,285.38C939.791,284.416 943.238,284.316 946.54,285.09C945.482,283.281 943.918,281.82 942.04,280.89C940.162,279.96 945.8,280.14 948.04,285.49C948.04,285.49 952.85,286.91 953.35,287.57C953.35,287.57 951.88,281.98 949.25,279.21C949.25,279.21 953.65,280.91 954.54,288.27L959,290.98C959,290.98 957.44,283.48 955.28,280.84C955.28,280.84 959.5,283.27 960.07,291.75L964.07,295.02C964.07,295.02 963.22,288.46 961.46,285.02C961.46,285.02 964.89,288.12 965.17,296.02L967.55,298.52C967.55,298.52 966.85,293.74 966.55,292.38C966.25,291.02 966.55,290.83 966.55,290.83C968.03,293.49 968.74,296.51 968.6,299.55C968.46,302.59 973.16,304.93 973.52,304.69Z" style="fill:rgb(108,99,255);fill-opacity:0.1;fill-rule:nonzero;"/>
        </g>
        <g transform="matrix(0.587069,0,0,0.507816,-65.0446,-26.1839)">
            <path d="M739.1,387.23C739.1,387.23 718.67,355.05 699.7,374.31C699.7,374.31 695.36,376.31 696.12,381.06C696.12,381.06 697.77,379.96 699.47,383.46C700.081,384.7 700.84,385.862 701.73,386.92C702.922,388.364 704.557,389.376 706.38,389.8C708.203,390.224 716.23,395.88 732.83,389C732.83,389 737.72,389.26 738.44,388.59L732.44,384.99C732.44,384.99 729.97,389.49 725.84,390.34C725.84,390.34 732.46,385.34 731.57,384.42C731.4,384.24 728.32,382.66 728.32,382.66C728.32,382.66 723.99,390.44 717.57,391.57C717.57,391.57 726.26,386.62 727.16,382.04L722.37,379.93C722.37,379.93 718.2,388.38 710.94,389.93C710.94,389.93 719.84,384.44 721.29,379.52L716.29,378.08C716.29,378.08 712.07,386.25 706.02,387.5C706.02,387.5 715.66,380.12 715.13,377.82C715.13,377.82 710.47,376.77 709.13,377.09C709.13,377.09 705.96,382.88 702.38,383.3C702.38,383.3 708.3,377.68 707.81,376.94C707.81,376.94 701.38,377.19 698.18,379.04C701.034,377.191 704.324,376.122 707.72,375.94C706.2,374.501 704.291,373.538 702.23,373.17C700.169,372.802 705.62,371.4 709.23,375.9C709.23,375.9 714.23,375.9 714.92,376.4C714.92,376.4 711.92,371.4 708.63,369.53C708.63,369.53 713.33,369.93 716.25,376.74L721.3,378.08C721.3,378.08 717.69,371.33 714.88,369.4C714.88,369.4 719.61,370.54 722.54,378.53L727.26,380.53C727.26,380.53 724.6,374.48 721.93,371.65C721.93,371.65 726.09,373.65 728.58,381.16L731.58,382.89C731.58,382.89 729.58,378.5 728.87,377.29C728.16,376.08 728.44,375.8 728.44,375.8C730.604,377.937 732.131,380.635 732.85,383.59C733.569,386.545 738.83,387.57 739.1,387.23Z" style="fill:rgb(108,99,255);fill-opacity:0.1;fill-rule:nonzero;"/>
        </g>
        <g transform="matrix(0.587069,0,0,0.507816,-65.0446,-26.1839)">
            <path d="M873.37,222.81C873.37,222.81 853.94,190.02 834.37,208.68C834.37,208.68 829.97,210.58 830.59,215.32C830.59,215.32 832.26,214.26 833.86,217.81C834.432,219.072 835.154,220.26 836.01,221.35C837.158,222.824 838.762,223.879 840.57,224.35C842.378,224.821 850.22,230.73 867.03,224.35C867.03,224.35 871.91,224.76 872.65,224.11L866.78,220.33C866.78,220.33 864.18,224.74 860.02,225.47C860.02,225.47 866.79,220.64 865.94,219.73C865.76,219.54 862.74,217.86 862.74,217.86C862.74,217.86 858.17,225.51 851.74,226.44C851.74,226.44 860.58,221.76 861.61,217.22L856.89,215C856.89,215 852.46,223.33 845.15,224.66C845.15,224.66 854.22,219.45 855.82,214.58L850.88,212.98C850.88,212.98 846.4,220.98 840.32,222.08C840.32,222.08 850.18,215 849.72,212.69C849.72,212.69 845.1,211.49 843.72,211.77C843.72,211.77 840.37,217.46 836.78,217.77C836.78,217.77 842.87,212.35 842.41,211.59C842.41,211.59 835.97,211.64 832.72,213.39C835.631,211.634 838.951,210.669 842.35,210.59C840.872,209.104 838.991,208.081 836.94,207.65C834.889,207.219 840.39,205.98 843.94,210.59C843.94,210.59 848.94,210.76 849.61,211.27C849.61,211.27 846.78,206.27 843.54,204.21C843.54,204.21 848.22,204.75 850.93,211.65L855.93,213.15C855.93,213.15 852.54,206.29 849.78,204.27C849.78,204.27 854.48,205.56 857.16,213.63L861.81,215.8C861.81,215.8 859.34,209.67 856.81,206.8C856.81,206.8 860.9,208.93 863.17,216.51L866.1,218.33C866.1,218.33 864.22,213.88 863.56,212.65C862.9,211.42 863.18,211.15 863.18,211.15C865.276,213.353 866.72,216.095 867.35,219.07C867.98,222.045 873.08,223.14 873.37,222.81Z" style="fill:rgb(108,99,255);fill-rule:nonzero;"/>
        </g>
        <g transform="matrix(0.587069,0,0,0.507816,-65.0446,-26.1839)">
            <path d="M750.44,291.76C750.44,291.76 751.44,253.66 724.97,259.03C724.97,259.03 720.23,258.3 718.23,262.64C718.23,262.64 720.23,262.64 719.67,266.49C719.487,267.863 719.467,269.252 719.61,270.63C719.791,272.498 720.582,274.256 721.86,275.63C723.138,277.004 726.63,286.17 744.24,289.75C744.24,289.75 748.15,292.7 749.13,292.54L746.13,286.22C746.13,286.22 741.58,288.56 737.67,286.97C737.67,286.97 745.97,286.48 745.74,285.26C745.74,285.01 744.02,281.97 744.02,281.97C744.02,281.97 736.08,286.02 730.13,283.36C730.13,283.36 740.13,284.11 743.4,280.82L740.61,276.39C740.61,276.39 732.43,281.07 725.53,278.31C725.53,278.31 735.98,278.73 739.94,275.46L736.61,271.46C736.61,271.46 728.54,275.88 722.82,273.54C722.82,273.54 734.94,272.81 735.82,270.6C735.82,270.6 732.54,267.13 731.22,266.6C731.22,266.6 725.36,269.6 722.16,267.98C722.16,267.98 730.16,266.64 730.21,265.75C730.21,265.75 724.74,262.36 721.05,262.11C724.452,262.171 727.78,263.123 730.7,264.87C730.244,262.826 729.202,260.959 727.7,259.5C726.198,258.041 731.51,259.93 732.03,265.7C732.03,265.7 736.2,268.52 736.47,269.3C736.47,269.3 736.76,263.53 735.09,260.09C735.09,260.09 738.77,263.04 737.39,270.32L740.82,274.26C740.82,274.26 741.6,266.64 740.35,263.47C740.35,263.47 743.63,267.06 741.61,275.32L744.38,279.63C744.38,279.63 745.56,273.12 744.93,269.29C744.93,269.29 747.25,273.29 745.13,280.9L746.65,284C746.65,284 747.42,279.23 747.52,277.84C747.62,276.45 748,276.36 748,276.36C748.602,279.343 748.363,282.435 747.31,285.29C746.257,288.145 750,291.89 750.44,291.76Z" style="fill:rgb(108,99,255);fill-rule:nonzero;"/>
        </g>
        <g transform="matrix(0.587069,0,0,0.507816,-9.13803,1.7612)">
            <ellipse cx="698.97" cy="716.3" rx="26.93" ry="4.55" style="fill:rgb(108,99,255);fill-opacity:0.1;"/>
        </g>
        <g transform="matrix(0.587069,0,0,0.507816,-9.13803,1.7612)">
            <ellipse cx="93.14" cy="749.99" rx="26.93" ry="4.55" style="fill:rgb(108,99,255);fill-opacity:0.1;"/>
        </g>
        <g transform="matrix(0.587069,0,0,0.507816,-9.13803,1.7612)">
            <ellipse cx="833.1" cy="723.1" rx="40.21" ry="6.8" style="fill:rgb(108,99,255);"/>
        </g>
        <g transform="matrix(0.587069,0,0,0.507816,-65.0446,-26.1839)">
            <path d="M945,767C946.835,765.509 948.172,763.492 948.83,761.22C949.33,758.92 948.35,756.17 946.16,755.33C943.7,754.39 941.07,756.09 939.07,757.81C937.07,759.53 934.8,761.5 932.19,761.14C934.912,758.667 936.144,754.938 935.43,751.33C935.317,750.594 935.006,749.903 934.53,749.33C933.16,747.87 930.69,748.5 929.05,749.65C923.85,753.31 922.4,760.37 922.37,766.73C921.85,764.44 922.29,762.05 922.28,759.73C922.27,757.41 921.62,754.73 919.63,753.51C918.409,752.829 917.028,752.484 915.63,752.51C913.29,752.43 910.68,752.66 909.09,754.37C907.09,756.49 907.62,760.06 909.34,762.37C911.06,764.68 913.69,766.17 916.11,767.79C918.047,768.947 919.701,770.522 920.95,772.4C921.092,772.662 921.21,772.936 921.3,773.22L935.96,773.22C939.242,771.567 942.283,769.474 945,767Z" style="fill:rgb(108,99,255);fill-rule:nonzero;"/>
        </g>
        <g transform="matrix(0.587069,0,0,0.507816,-65.0446,-26.1839)">
            <path d="M170.29,783.87C170.29,783.87 185.64,783.4 190.29,780.1C194.94,776.8 213.92,772.87 215.07,778.16C216.22,783.45 238.15,804.45 220.81,804.59C203.47,804.73 180.52,801.89 175.9,799.07C171.28,796.25 170.29,783.87 170.29,783.87Z" style="fill:rgb(168,168,168);fill-rule:nonzero;"/>
        </g>
        <g transform="matrix(0.587069,0,0,0.507816,-65.0446,-26.1839)">
            <path d="M221.1,802.75C203.76,802.89 180.81,800.05 176.19,797.23C172.67,795.09 171.27,787.4 170.8,783.85L170.29,783.85C170.29,783.85 171.29,796.24 175.88,799.05C180.47,801.86 203.45,804.71 220.79,804.57C225.79,804.57 227.52,802.75 227.43,800.11C226.73,801.72 224.82,802.72 221.1,802.75Z" style="fill-opacity:0.2;fill-rule:nonzero;"/>
        </g>
    </g>
    <defs>
        <linearGradient id="_Linear1" x1="0" y1="0" x2="1" y2="0" gradientUnits="userSpaceOnUse" gradientTransform="matrix(312.13,0,0,312.13,318.22,488.45)"><stop offset="0" style="stop-color:rgb(128,128,128);stop-opacity:0.25"/><stop offset="0.54" style="stop-color:rgb(128,128,128);stop-opacity:0.12"/><stop offset="1" style="stop-color:rgb(128,128,128);stop-opacity:0.1"/></linearGradient>
    </defs>
</svg>
